<mxfile host="app.diagrams.net" modified="2022-09-07T22:24:47.018Z" agent="5.0 (Windows NT 10.0; Win64; x64) AppleWebKit/537.36 (KHTML, like Gecko) Chrome/104.0.0.0 Safari/537.36" etag="JQ_Ppvbg7Fk6-xIslF2o" version="20.2.7" type="github">
  <diagram id="roDV2kf7TTpQiakgGkn3" name="Page-1">
    <mxGraphModel dx="1247" dy="699" grid="1" gridSize="10" guides="1" tooltips="1" connect="1" arrows="1" fold="1" page="1" pageScale="1" pageWidth="1100" pageHeight="850" math="0" shadow="0">
      <root>
        <mxCell id="0" />
        <mxCell id="1" parent="0" />
        <mxCell id="kQU2PhaHGbYmVckeRxvD-1" value="&lt;h1&gt;Spiral Traverse&lt;/h1&gt;&lt;p&gt;&lt;/p&gt;&lt;ul&gt;&lt;li&gt;Write a function that takes in an n x m two-dimensional array and returns a one-dimensional array of all the array&#39;s elements in spiral order&lt;/li&gt;&lt;li&gt;Spiral order starts at the top left corner of the two-dimensional array, goes to the right, and proceeds in a spiral pattern all the way until every element has been visited&lt;/li&gt;&lt;/ul&gt;&lt;div&gt;&lt;br&gt;&lt;/div&gt;&lt;div&gt;Example&lt;/div&gt;&lt;div&gt;&lt;span style=&quot;background-color: initial;&quot;&gt;&lt;br&gt;&lt;/span&gt;&lt;/div&gt;&lt;div&gt;&lt;span style=&quot;background-color: initial;&quot;&gt;array = [&amp;nbsp;&lt;/span&gt;&lt;/div&gt;&lt;div&gt;&lt;span style=&quot;background-color: initial;&quot;&gt;&lt;span style=&quot;white-space: pre;&quot;&gt;	&lt;/span&gt;[1,2,3,4],&lt;/span&gt;&lt;/div&gt;&lt;div&gt;&lt;span style=&quot;background-color: initial;&quot;&gt;&lt;span style=&quot;white-space: pre;&quot;&gt;	&lt;/span&gt;[11, 13, 15, 5],&lt;br&gt;&lt;/span&gt;&lt;/div&gt;&lt;div&gt;&lt;span style=&quot;background-color: initial;&quot;&gt;&lt;span style=&quot;white-space: pre;&quot;&gt;	&lt;/span&gt;[11, 16,15, 6],&lt;br&gt;&lt;/span&gt;&lt;/div&gt;&lt;div&gt;&lt;span style=&quot;background-color: initial;&quot;&gt;&lt;span style=&quot;white-space: pre;&quot;&gt;	&lt;/span&gt;[10, 9, 8, 7]&lt;br&gt;&lt;/span&gt;&lt;/div&gt;&lt;div&gt;]&lt;/div&gt;&lt;div&gt;&lt;br&gt;&lt;/div&gt;&lt;div&gt;Output = [1,2,3,4,5,6,7,8,9,10,11,12,13,14,15,16]&lt;/div&gt;&lt;p&gt;&lt;/p&gt;" style="text;html=1;strokeColor=none;fillColor=none;spacing=5;spacingTop=-20;whiteSpace=wrap;overflow=hidden;rounded=0;" vertex="1" parent="1">
          <mxGeometry x="100" y="50" width="530" height="310" as="geometry" />
        </mxCell>
        <mxCell id="kQU2PhaHGbYmVckeRxvD-2" value="&lt;h1&gt;&lt;span style=&quot;background-color: initial;&quot;&gt;Solution 1&lt;/span&gt;&lt;br&gt;&lt;/h1&gt;&lt;div&gt;&lt;ul&gt;&lt;li&gt;We need to keep track of startRow, endRow, startColumn, endRow&lt;/li&gt;&lt;ul&gt;&lt;li&gt;Once we traverse an entire row/column, we need to up either start/end row or start/end column&lt;/li&gt;&lt;ul&gt;&lt;li&gt;For example, if we traversed the entire first column, then startColumn++&lt;/li&gt;&lt;/ul&gt;&lt;/ul&gt;&lt;li&gt;Traverse current column until we hit end&lt;/li&gt;&lt;ul&gt;&lt;li&gt;Then start going down across rows&lt;/li&gt;&lt;/ul&gt;&lt;li&gt;Traverse current row until we hit end&lt;/li&gt;&lt;ul&gt;&lt;li&gt;Then start going left across columns&lt;/li&gt;&lt;/ul&gt;&lt;li&gt;Traverse current column until we hit end&lt;/li&gt;&lt;ul&gt;&lt;li&gt;Then start going up&lt;/li&gt;&lt;/ul&gt;&lt;li&gt;Traverse row until we hit end&lt;/li&gt;&lt;ul&gt;&lt;li&gt;Then start going right&lt;/li&gt;&lt;/ul&gt;&lt;/ul&gt;&lt;/div&gt;" style="text;html=1;strokeColor=none;fillColor=none;spacing=5;spacingTop=-20;whiteSpace=wrap;overflow=hidden;rounded=0;" vertex="1" parent="1">
          <mxGeometry x="100" y="390" width="490" height="245" as="geometry" />
        </mxCell>
        <mxCell id="kQU2PhaHGbYmVckeRxvD-4" value="&lt;h1&gt;&lt;span style=&quot;background-color: initial;&quot;&gt;Space Complexity&lt;/span&gt;&lt;br&gt;&lt;/h1&gt;&lt;div&gt;&lt;ul&gt;&lt;li&gt;O(MxN)&lt;/li&gt;&lt;li&gt;Have to store entire MxN matrix&lt;/li&gt;&lt;/ul&gt;&lt;/div&gt;" style="text;html=1;strokeColor=none;fillColor=none;spacing=5;spacingTop=-20;whiteSpace=wrap;overflow=hidden;rounded=0;" vertex="1" parent="1">
          <mxGeometry x="100" y="680" width="360" height="150" as="geometry" />
        </mxCell>
        <mxCell id="kQU2PhaHGbYmVckeRxvD-5" value="&lt;h1&gt;&lt;span style=&quot;background-color: initial;&quot;&gt;Time Complexity&lt;/span&gt;&lt;br&gt;&lt;/h1&gt;&lt;div&gt;&lt;ul&gt;&lt;li&gt;O(MxN)&lt;/li&gt;&lt;li&gt;Have to traverse all entire M x N matrix&lt;/li&gt;&lt;/ul&gt;&lt;/div&gt;" style="text;html=1;strokeColor=none;fillColor=none;spacing=5;spacingTop=-20;whiteSpace=wrap;overflow=hidden;rounded=0;" vertex="1" parent="1">
          <mxGeometry x="100" y="840" width="360" height="150" as="geometry" />
        </mxCell>
      </root>
    </mxGraphModel>
  </diagram>
</mxfile>
